<svg width="200" height="200" viewBox="0 0 200 200" xmlns="http://www.w3.org/2000/svg">
  <defs>
    <linearGradient id="bg" x1="0" y1="0" x2="1" y2="1"><stop stop-color="#064c74"/><stop offset="1" stop-color="#031a30"/></linearGradient>
    <radialGradient id="glow" cx="72%" cy="82%" r="70%"><stop stop-color="#23d5e7" stop-opacity=".75"/><stop offset="1" stop-color="#23d5e7" stop-opacity="0"/></radialGradient>
  </defs>
  <rect x="20" y="20" width="160" height="160" rx="40" fill="url(#bg)"/>
  <rect x="22" y="22" width="156" height="156" rx="38" fill="url(#glow)" stroke="#33d9ea" stroke-width="4"/>
  <g transform="translate(65 60)" fill="#fff">
    <rect width="14" height="80" rx="7"/>
    <path d="M14 25c16 0 41-15 41-15s5 10-10 25c-10 10-31 15-31 15V25Z"/>
    <path d="M14 55c16 0 46 15 46 15s-5 15-20 10c-10-5-26-15-26-15V55Z"/>
    <circle cx="70" cy="40" r="7"/>
  </g>
</svg>
