<svg width="420" height="96" viewBox="0 0 420 96" xmlns="http://www.w3.org/2000/svg" role="img" aria-label="Kotbo Docs">
  <defs>
    <linearGradient id="k-bg" x1="0" y1="0" x2="1" y2="1">
      <stop stop-color="#064c74"/>
      <stop offset="1" stop-color="#031a30"/>
    </linearGradient>
    <radialGradient id="k-glow" cx="72%" cy="82%" r="70%">
      <stop stop-color="#23d5e7" stop-opacity=".75"/>
      <stop offset="1" stop-color="#23d5e7" stop-opacity="0"/>
    </radialGradient>
  </defs>
  <g transform="translate(4 4)">
    <rect width="88" height="88" rx="24" fill="url(#k-bg)"/>
    <rect x="1.5" y="1.5" width="85" height="85" rx="22.5" fill="url(#k-glow)" stroke="#33d9ea" stroke-width="3"/>
    <g transform="translate(27 23)" fill="#fff">
      <rect width="8" height="43" rx="4"/>
      <path d="M8 13c9 0 23-8 23-8s4 6-5 14c-6 5-18 8-18 8V13Z"/>
      <path d="M8 29c9 0 25 9 25 9s-4 8-13 4c-6-3-12-7-12-7v-6Z"/>
      <circle cx="38" cy="22" r="4"/>
    </g>
  </g>
  <text x="112" y="61" fill="#35c9d8" font-family="Manrope, sans-serif" font-size="43" font-weight="750" letter-spacing="-2">Kotbo</text>
  <text x="237" y="61" fill="#29c4d5" font-family="Manrope, sans-serif" font-size="18" font-weight="700" letter-spacing="3">DOCS</text>
</svg>
